<svg xmlns="http://www.w3.org/2000/svg" class="markmap mm-5b8n2n-2" style="width: 100%; height: 100%; -webkit-tap-highlight-color: rgba(0, 0, 0, 0);"><style>.markmap{--markmap-max-width: 9999px;--markmap-a-color: #0097e6;--markmap-a-hover-color: #00a8ff;--markmap-code-bg: #f0f0f0;--markmap-code-color: #555;--markmap-highlight-bg: #ffeaa7;--markmap-table-border: 1px solid currentColor;--markmap-font: 300 16px/20px sans-serif;--markmap-circle-open-bg: #fff;--markmap-text-color: #333;--markmap-highlight-node-bg: #ff02;font:var(--markmap-font);color:var(--markmap-text-color)}.markmap-link{fill:none}.markmap-node&gt;circle{cursor:pointer}.markmap-foreign{display:inline-block}.markmap-foreign p{margin:0}.markmap-foreign a{color:var(--markmap-a-color)}.markmap-foreign a:hover{color:var(--markmap-a-hover-color)}.markmap-foreign code{padding:.25em;font-size:calc(1em - 2px);color:var(--markmap-code-color);background-color:var(--markmap-code-bg);border-radius:2px}.markmap-foreign pre{margin:0}.markmap-foreign pre&gt;code{display:block}.markmap-foreign del{text-decoration:line-through}.markmap-foreign em{font-style:italic}.markmap-foreign strong{font-weight:700}.markmap-foreign mark{background:var(--markmap-highlight-bg)}.markmap-foreign table,.markmap-foreign th,.markmap-foreign td{border-collapse:collapse;border:var(--markmap-table-border)}.markmap-foreign img{display:inline-block}.markmap-foreign svg{fill:currentColor}.markmap-foreign&gt;div{width:var(--markmap-max-width);text-align:left}.markmap-foreign&gt;div&gt;div{display:inline-block}.markmap-highlight rect{fill:var(--markmap-highlight-node-bg)}.markmap-dark .markmap{--markmap-code-bg: #1a1b26;--markmap-code-color: #ddd;--markmap-circle-open-bg: #444;--markmap-text-color: #eee}</style><g transform="translate(20.000000000000057,328.6570247933885) scale(1.046831955922865)"><path class="markmap-link" data-depth="3" data-path="1.2.3" d="M402,-16.375C442,-16.375,442,-71.312,482,-71.312" stroke-width="1.375" stroke="rgb(44, 160, 44)"/><path class="markmap-link" data-depth="3" data-path="1.2.4" d="M402,-16.375C442,-16.375,442,-43.937,482,-43.937" stroke-width="1.375" stroke="rgb(214, 39, 40)"/><path class="markmap-link" data-depth="3" data-path="1.2.5" d="M402,-16.375C442,-16.375,442,-16.562,482,-16.562" stroke-width="1.375" stroke="rgb(148, 103, 189)"/><path class="markmap-link" data-depth="3" data-path="1.2.6" d="M402,-16.375C442,-16.375,442,10.813,482,10.813" stroke-width="1.375" stroke="rgb(140, 86, 75)"/><path class="markmap-link" data-depth="3" data-path="1.2.7" d="M402,-16.375C442,-16.375,442,38.188,482,38.188" stroke-width="1.375" stroke="rgb(227, 119, 194)"/><path class="markmap-link" data-depth="2" data-path="1.2" d="M242,11.75C282,11.75,282,-16.375,322,-16.375" stroke-width="1.75" stroke="rgb(255, 127, 14)"/><path class="markmap-link" data-depth="2" data-path="1.8" d="M242,11.75C282,11.75,282,11.375,322,11.375" stroke-width="1.75" stroke="rgb(127, 127, 127)"/><path class="markmap-link" data-depth="2" data-path="1.9" d="M242,11.75C282,11.75,282,39.125,322,39.125" stroke-width="1.75" stroke="rgb(188, 189, 34)"/><g class="markmap-highlight"/><g data-depth="3" data-path="1.2.3" class="markmap-node" transform="translate(482, -93)"><line stroke="#2ca02c" stroke-width="1.375" x1="-1" x2="166" y1="21.6875" y2="21.6875"/><foreignObject class="markmap-foreign" x="8" y="0" style="opacity: 1;" width="148" height="21"><div xmlns="http://www.w3.org/1999/xhtml"><div xmlns="http://www.w3.org/1999/xhtml"><svg xmlns="http://www.w3.org/2000/svg" width="16" height="16" viewBox="0 -3 24 24"><path fill-rule="evenodd" d="M6 5a1 1 0 0 0-1 1v12a1 1 0 0 0 1 1h12a1 1 0 0 0 1-1V6a1 1 0 0 0-1-1zM3 6a3 3 0 0 1 3-3h12a3 3 0 0 1 3 3v12a3 3 0 0 1-3 3H6a3 3 0 0 1-3-3v-5z" clip-rule="evenodd"/></svg> 网络资产自动发现</div></div></foreignObject></g><g data-depth="3" data-path="1.2.4" class="markmap-node" transform="translate(482, -65.625)"><line stroke="#d62728" stroke-width="1.375" x1="-1" x2="246" y1="21.6875" y2="21.6875"/><foreignObject class="markmap-foreign" x="8" y="0" style="opacity: 1;" width="228" height="21"><div xmlns="http://www.w3.org/1999/xhtml"><div xmlns="http://www.w3.org/1999/xhtml"><svg xmlns="http://www.w3.org/2000/svg" width="16" height="16" viewBox="0 -3 24 24"><path fill-rule="evenodd" d="M6 5a1 1 0 0 0-1 1v12a1 1 0 0 0 1 1h12a1 1 0 0 0 1-1V6a1 1 0 0 0-1-1zM3 6a3 3 0 0 1 3-3h12a3 3 0 0 1 3 3v12a3 3 0 0 1-3 3H6a3 3 0 0 1-3-3v-5z" clip-rule="evenodd"/></svg> 设备配置自动备份与版本管理</div></div></foreignObject></g><g data-depth="3" data-path="1.2.5" class="markmap-node" transform="translate(482, -38.25)"><line stroke="#9467bd" stroke-width="1.375" x1="-1" x2="166" y1="21.6875" y2="21.6875"/><foreignObject class="markmap-foreign" x="8" y="0" style="opacity: 1;" width="148" height="21"><div xmlns="http://www.w3.org/1999/xhtml"><div xmlns="http://www.w3.org/1999/xhtml"><svg xmlns="http://www.w3.org/2000/svg" width="16" height="16" viewBox="0 -3 24 24"><path fill-rule="evenodd" d="M6 5a1 1 0 0 0-1 1v12a1 1 0 0 0 1 1h12a1 1 0 0 0 1-1V6a1 1 0 0 0-1-1zM3 6a3 3 0 0 1 3-3h12a3 3 0 0 1 3 3v12a3 3 0 0 1-3 3H6a3 3 0 0 1-3-3v-5z" clip-rule="evenodd"/></svg> 安全基线合规检查</div></div></foreignObject></g><g data-depth="3" data-path="1.2.6" class="markmap-node" transform="translate(482, -10.875)"><line stroke="#8c564b" stroke-width="1.375" x1="-1" x2="150" y1="21.6875" y2="21.6875"/><foreignObject class="markmap-foreign" x="8" y="0" style="opacity: 1;" width="132" height="21"><div xmlns="http://www.w3.org/1999/xhtml"><div xmlns="http://www.w3.org/1999/xhtml"><svg xmlns="http://www.w3.org/2000/svg" width="16" height="16" viewBox="0 -3 24 24"><path fill-rule="evenodd" d="M6 5a1 1 0 0 0-1 1v12a1 1 0 0 0 1 1h12a1 1 0 0 0 1-1V6a1 1 0 0 0-1-1zM3 6a3 3 0 0 1 3-3h12a3 3 0 0 1 3 3v12a3 3 0 0 1-3 3H6a3 3 0 0 1-3-3v-5z" clip-rule="evenodd"/></svg> 网络拓扑可视化</div></div></foreignObject></g><g data-depth="3" data-path="1.2.7" class="markmap-node" transform="translate(482, 16.5)"><line stroke="#e377c2" stroke-width="1.375" x1="-1" x2="166" y1="21.6875" y2="21.6875"/><foreignObject class="markmap-foreign" x="8" y="0" style="opacity: 1;" width="148" height="21"><div xmlns="http://www.w3.org/1999/xhtml"><div xmlns="http://www.w3.org/1999/xhtml"><svg xmlns="http://www.w3.org/2000/svg" width="16" height="16" viewBox="0 -3 24 24"><path fill-rule="evenodd" d="M6 5a1 1 0 0 0-1 1v12a1 1 0 0 0 1 1h12a1 1 0 0 0 1-1V6a1 1 0 0 0-1-1zM3 6a3 3 0 0 1 3-3h12a3 3 0 0 1 3 3v12a3 3 0 0 1-3 3H6a3 3 0 0 1-3-3v-5z" clip-rule="evenodd"/></svg> 巡检报告自动生成</div></div></foreignObject></g><g data-depth="2" data-path="1.2" class="markmap-node" transform="translate(322, -38.25)"><line stroke="#ff7f0e" stroke-width="1.75" x1="-1" x2="82" y1="21.875" y2="21.875"/><circle stroke-width="1.5" r="6" stroke="#ff7f0e" fill="var(--markmap-circle-open-bg)" cx="80" cy="21.875"/><foreignObject class="markmap-foreign" x="8" y="0" style="opacity: 1;" width="64" height="21"><div xmlns="http://www.w3.org/1999/xhtml"><div xmlns="http://www.w3.org/1999/xhtml">功能特性</div></div></foreignObject></g><g data-depth="2" data-path="1.8" class="markmap-node" transform="translate(322, -10.5)"><line stroke="#7f7f7f" stroke-width="1.75" x1="-1" x2="66" y1="21.875" y2="21.875"/><foreignObject class="markmap-foreign" x="8" y="0" style="opacity: 1;" width="48" height="21"><div xmlns="http://www.w3.org/1999/xhtml"><div xmlns="http://www.w3.org/1999/xhtml">技术栈</div></div></foreignObject></g><g data-depth="2" data-path="1.9" class="markmap-node" transform="translate(322, 17.25)"><line stroke="#bcbd22" stroke-width="1.75" x1="-1" x2="82" y1="21.875" y2="21.875"/><foreignObject class="markmap-foreign" x="8" y="0" style="opacity: 1;" width="64" height="21"><div xmlns="http://www.w3.org/1999/xhtml"><div xmlns="http://www.w3.org/1999/xhtml">快速开始</div></div></foreignObject></g><g data-depth="1" data-path="1" class="markmap-node" transform="translate(0, -10.5)"><line stroke="#1f77b4" stroke-width="2.5" x1="-1" x2="244" y1="22.25" y2="22.25"/><circle stroke-width="1.5" r="6" stroke="#1f77b4" fill="var(--markmap-circle-open-bg)" cx="242" cy="22.25"/><foreignObject class="markmap-foreign" x="8" y="0" style="opacity: 1;" width="226" height="21"><div xmlns="http://www.w3.org/1999/xhtml"><div xmlns="http://www.w3.org/1999/xhtml">NetGuard - 网络自动化运维平台</div></div></foreignObject></g></g></svg>